<svg xmlns="http://www.w3.org/2000/svg" enable-background="new 0 0 843.679 272.843" viewBox="0 0 843.679 272.843"><path fill="none" d="M0 0H843.679V272.843H0z"/><g><path d="M261.668 136.446c0-4.447.644-8.33 1.934-11.65 1.29-3.319 2.997-6.074 5.124-8.266 2.127-2.19 4.576-3.834 7.348-4.93 2.77-1.096 5.607-1.644 8.508-1.644 6.767 0 11.956 2.112 15.566 6.332 3.608 4.223 5.414 10.652 5.414 19.288v1.499c0 .613-.033 1.177-.097 1.691h-34.419c.387 5.221 1.9 9.185 4.544 11.892 2.643 2.708 6.768 4.061 12.375 4.061 3.158 0 5.817-.273 7.977-.822 2.16-.547 3.786-1.078 4.883-1.595l1.257 7.541c-1.097.58-3.014 1.193-5.753 1.837-2.74.644-5.85.967-9.33.967-4.384 0-8.17-.662-11.36-1.982s-5.817-3.142-7.88-5.463c-2.063-2.32-3.593-5.075-4.592-8.266-1-3.19-1.499-6.686-1.499-10.49zm34.516-4.93c.064-4.061-.952-7.397-3.046-10.007-2.096-2.61-4.98-3.915-8.653-3.915-2.064 0-3.884.403-5.462 1.208-1.58.807-2.917 1.854-4.013 3.142-1.096 1.29-1.95 2.772-2.561 4.447-.614 1.677-1.016 3.384-1.21 5.124h24.945zm37.414 30.937c-5.544-.13-9.474-1.32-11.795-3.577-2.32-2.255-3.48-5.767-3.48-10.538V88.01l8.991-1.547v60.425c0 1.484.129 2.708.387 3.675.257.967.676 1.74 1.257 2.32s1.353 1.015 2.32 1.305 2.159.532 3.577.725l-1.257 7.541zm8.508-26.007c0-4.447.644-8.33 1.934-11.65 1.289-3.319 2.997-6.074 5.124-8.266 2.127-2.19 4.576-3.834 7.347-4.93 2.77-1.096 5.608-1.644 8.508-1.644 6.768 0 11.956 2.112 15.566 6.332 3.609 4.223 5.415 10.652 5.415 19.288v1.499c0 .613-.034 1.177-.097 1.691h-34.42c.388 5.221 1.901 9.185 4.545 11.892 2.642 2.708 6.767 4.061 12.375 4.061 3.157 0 5.816-.273 7.976-.822 2.16-.547 3.787-1.078 4.883-1.595l1.257 7.541c-1.097.58-3.014 1.193-5.753 1.837-2.74.644-5.85.967-9.33.967-4.384 0-8.169-.662-11.36-1.982s-5.817-3.142-7.88-5.463c-2.063-2.32-3.593-5.075-4.591-8.266-1-3.19-1.499-6.686-1.499-10.49zm34.516-4.93c.063-4.061-.953-7.397-3.046-10.007-2.096-2.61-4.98-3.915-8.654-3.915-2.063 0-3.883.403-5.462 1.208-1.58.807-2.917 1.854-4.012 3.142-1.097 1.29-1.95 2.772-2.562 4.447-.613 1.677-1.015 3.384-1.209 5.124h24.945zm44.18 31.13c-4.06 0-7.622-.644-10.682-1.933-3.063-1.288-5.641-3.094-7.735-5.414-2.095-2.32-3.659-5.076-4.69-8.266-1.03-3.19-1.546-6.72-1.546-10.587s.563-7.411 1.692-10.635c1.127-3.222 2.722-6.009 4.785-8.362 2.063-2.353 4.593-4.19 7.59-5.511 2.997-1.32 6.332-1.982 10.006-1.982 2.257 0 4.51.193 6.768.58 2.256.387 4.414 1 6.479 1.837l-2.031 7.638c-1.354-.644-2.918-1.16-4.69-1.547-1.773-.387-3.658-.58-5.656-.58-5.027 0-8.879 1.58-11.552 4.737-2.676 3.159-4.013 7.767-4.013 13.825 0 2.707.306 5.19.919 7.444.611 2.258 1.578 4.191 2.9 5.802 1.32 1.612 3.012 2.852 5.075 3.722 2.063.87 4.577 1.305 7.542 1.305 2.383 0 4.543-.225 6.478-.677 1.934-.45 3.448-.933 4.543-1.45l1.258 7.541c-.517.323-1.258.629-2.224.919s-2.065.546-3.288.773c-1.224.225-2.53.418-3.916.58-1.386.16-2.722.242-4.012.242zm31.518-51.433h19.047v7.54H452.32v23.204c0 2.514.194 4.593.58 6.236s.967 2.934 1.74 3.867c.774.935 1.74 1.596 2.901 1.982s2.514.58 4.06.58c2.708 0 4.883-.305 6.528-.918 1.642-.612 2.787-1.047 3.432-1.305l1.74 7.444c-.905.452-2.483 1.015-4.738 1.692s-4.834 1.015-7.735 1.015c-3.416 0-6.234-.435-8.459-1.305-2.223-.87-4.012-2.175-5.365-3.916s-2.305-3.882-2.852-6.429c-.548-2.545-.822-5.494-.822-8.846v-44.86l8.99-1.547v15.566zm49.016-1.064c.773 0 1.66.048 2.66.145.998.096 1.98.227 2.947.386.967.163 1.854.324 2.66.484.805.162 1.4.307 1.788.435l-1.547 7.831c-.71-.256-1.885-.563-3.528-.918-1.644-.354-3.755-.532-6.334-.532-1.675 0-3.334.178-4.978.532-1.643.355-2.723.597-3.238.725v42.25h-8.993V113.34c2.127-.774 4.77-1.499 7.928-2.176 3.158-.677 6.703-1.015 10.635-1.015zm23.203-8.024c-1.611 0-2.98-.532-4.107-1.596-1.13-1.063-1.694-2.497-1.694-4.302 0-1.804.565-3.239 1.694-4.302 1.127-1.064 2.496-1.596 4.107-1.596s2.98.532 4.11 1.596c1.126 1.063 1.69 2.498 1.69 4.302 0 1.805-.564 3.239-1.69 4.302-1.13 1.064-2.499 1.596-4.11 1.596zm4.545 59.362h-8.992v-50.274h8.992v50.274zm37.316 1.16c-4.06 0-7.62-.645-10.681-1.934-3.063-1.288-5.64-3.094-7.735-5.414-2.095-2.32-3.66-5.076-4.69-8.266-1.03-3.19-1.546-6.72-1.546-10.587s.563-7.411 1.691-10.635c1.127-3.222 2.723-6.009 4.786-8.362 2.062-2.353 4.593-4.19 7.59-5.511 2.997-1.32 6.331-1.982 10.005-1.982 2.256 0 4.512.193 6.768.58s4.416 1 6.478 1.837l-2.029 7.638c-1.353-.644-2.918-1.16-4.69-1.547-1.773-.387-3.66-.58-5.656-.58-5.027 0-8.879 1.58-11.552 4.737-2.676 3.159-4.014 7.767-4.014 13.825 0 2.707.307 5.19.92 7.444.611 2.258 1.578 4.191 2.9 5.802 1.32 1.612 3.012 2.852 5.075 3.722s4.576 1.305 7.54 1.305c2.385 0 4.545-.225 6.48-.677 1.933-.45 3.446-.933 4.544-1.45l1.256 7.541c-.516.323-1.256.629-2.223.919s-2.064.546-3.287.773c-1.226.225-2.531.418-3.916.58-1.387.16-2.725.242-4.014.242zm67.29 0c-4.061 0-7.624-.645-10.684-1.934-3.063-1.288-5.64-3.094-7.735-5.414-2.095-2.32-3.658-5.076-4.689-8.266s-1.547-6.72-1.547-10.587.565-7.411 1.694-10.635c1.126-3.222 2.72-6.009 4.785-8.362 2.062-2.353 4.591-4.19 7.59-5.511 2.996-1.32 6.332-1.982 10.005-1.982 2.256 0 4.51.193 6.768.58 2.256.387 4.414 1 6.478 1.837l-2.03 7.638c-1.354-.644-2.919-1.16-4.69-1.547-1.774-.387-3.658-.58-5.656-.58-5.028 0-8.88 1.58-11.553 4.737-2.676 3.159-4.012 7.767-4.012 13.825 0 2.707.305 5.19.918 7.444.611 2.258 1.578 4.191 2.9 5.802 1.32 1.612 3.012 2.852 5.077 3.722 2.062.87 4.576 1.305 7.54 1.305 2.383 0 4.544-.225 6.48-.677 1.933-.45 3.446-.933 4.542-1.45l1.258 7.541c-.518.323-1.258.629-2.225.919s-2.064.546-3.287.773c-1.224.225-2.531.418-3.916.58-1.387.16-2.722.242-4.012.242zm39.35-52.691c3.608 0 6.653.468 9.136 1.402 2.48.935 4.478 2.257 5.994 3.964 1.514 1.708 2.594 3.738 3.238 6.09.645 2.354.967 4.948.967 7.783v31.422c-.773.13-1.854.306-3.238.531-1.387.227-2.95.435-4.69.629s-3.625.37-5.656.531c-2.03.16-4.045.242-6.043.242-2.836 0-5.447-.29-7.83-.87-2.385-.58-4.447-1.499-6.188-2.755s-3.093-2.916-4.06-4.98c-.967-2.061-1.451-4.543-1.451-7.444 0-2.77.564-5.155 1.693-7.155 1.127-1.997 2.658-3.608 4.592-4.834 1.934-1.223 4.19-2.126 6.767-2.707 2.577-.58 5.284-.87 8.122-.87.902 0 1.836.049 2.802.145s1.887.227 2.756.387c.871.162 1.627.307 2.272.435.644.13 1.095.227 1.353.29v-2.513c0-1.482-.16-2.95-.482-4.4-.324-1.45-.905-2.738-1.74-3.867-.838-1.127-1.983-2.03-3.432-2.707-1.451-.676-3.336-1.015-5.656-1.015-2.965 0-5.559.21-7.784.629-2.222.42-3.882.855-4.978 1.305l-1.065-7.445c1.16-.515 3.094-1.015 5.801-1.499 2.707-.483 5.64-.724 8.8-.724zm.773 45.053c2.126 0 4.011-.048 5.656-.145 1.642-.097 3.011-.273 4.107-.532v-14.986c-.644-.32-1.691-.594-3.14-.82-1.452-.226-3.207-.34-5.27-.34-1.353 0-2.789.097-4.303.29-1.515.194-2.9.597-4.156 1.21-1.258.613-2.307 1.45-3.143 2.513-.837 1.063-1.257 2.465-1.257 4.205 0 3.224 1.03 5.463 3.093 6.72s4.868 1.885 8.413 1.885zm45.148 0c3.674 0 6.396-.483 8.17-1.45 1.771-.967 2.658-2.514 2.658-4.64 0-2.191-.871-3.932-2.611-5.222-1.74-1.288-4.608-2.738-8.604-4.35-1.933-.774-3.787-1.562-5.558-2.37-1.774-.804-3.305-1.755-4.594-2.851-1.29-1.095-2.32-2.417-3.094-3.964s-1.16-3.447-1.16-5.704c0-4.447 1.644-7.976 4.932-10.587s7.765-3.915 13.437-3.915c1.418 0 2.836.081 4.254.241 1.418.162 2.74.356 3.965.58 1.223.227 2.303.469 3.238.726.934.258 1.658.483 2.176.676l-1.645 7.735c-.966-.515-2.48-1.047-4.543-1.595-2.064-.547-4.545-.822-7.445-.822-2.514 0-4.705.5-6.574 1.498-1.87 1-2.803 2.562-2.803 4.69 0 1.096.21 2.063.63 2.9.417.838 1.062 1.595 1.933 2.272.869.676 1.947 1.305 3.238 1.885 1.289.58 2.836 1.193 4.64 1.837 2.383.903 4.51 1.788 6.381 2.659 1.87.87 3.463 1.885 4.786 3.045 1.32 1.16 2.336 2.563 3.046 4.206.707 1.644 1.063 3.659 1.063 6.043 0 4.64-1.725 8.154-5.172 10.538-3.45 2.385-8.363 3.577-14.744 3.577-4.447 0-7.928-.372-10.441-1.112s-4.223-1.305-5.125-1.692l1.644-7.734c1.03.386 2.674.966 4.93 1.74s5.254 1.16 8.992 1.16zm31.422 6.478V88.009l8.99-1.547v25.717c1.676-.643 3.465-1.143 5.367-1.499 1.9-.353 3.785-.53 5.655-.53 3.996 0 7.314.564 9.959 1.691 2.642 1.129 4.751 2.707 6.332 4.737s2.691 4.464 3.335 7.3c.645 2.837.967 5.962.967 9.378v28.23h-8.99V135.19c0-3.093-.21-5.736-.629-7.927-.42-2.19-1.111-3.964-2.08-5.318-.967-1.353-2.256-2.335-3.867-2.949-1.611-.611-3.61-.918-5.994-.918-.967 0-1.967.065-2.996.193-1.032.13-2.016.275-2.95.435-.935.162-1.773.339-2.513.532-.742.193-1.274.355-1.596.484v41.766h-8.99z"/><linearGradient id="7vhhvkksaa" x1="136.422" x2="136.422" y1="52.691" y2="220.152" gradientUnits="userSpaceOnUse"><stop offset="0" stop-color="#FAD400"/><stop offset=".269" stop-color="#F7CE03"/><stop offset=".635" stop-color="#EFBC0B"/><stop offset="1" stop-color="#E4A416"/></linearGradient><path fill="url(#7vhhvkksaa)" d="M136.422 52.691c-46.244 0-83.731 37.488-83.731 83.73s37.487 83.731 83.73 83.731 83.731-37.487 83.731-83.73-37.487-83.731-83.73-83.731z"/><path fill="#FFF" d="M127.18 197.807L134.665 148.088 103.951 148.088 145.663 75.036 138.178 124.755 168.892 124.755z"/></g></svg>